SOURCE: WEB


No hardcoded subtitles, no logos


SAMPLE: Yes


General
-----------
Format : AVI
Format/Info : Audio Video Interleave
File size : 350 MiB
Duration : 40mn 26s
Overall bit rate : 1209 Kbps
Writing application : VirtualDubMod 1.5.4.1
Writing library : VirtualDubMod build 2178

Video
----------
Format : MPEG-4 Visual
Format profile : Advanced Simple@L5
Format settings, BVOP : 1
Format settings, QPel : No
Format settings, GMC : No warppoints
Format settings, Matrix : Custom
Codec ID : XVID
Codec ID/Hint : XviD
Duration : 40mn 26s
Bit rate : 1073 Kbps
Width : 720 pixels
Height : 416 pixels
Display aspect ratio : 1.731
Frame rate : 25.000 fps
Color space : YUV
Chroma subsampling : 4:2:0
Bit depth : 8 bits
Scan type : Progressive
Compression mode : Lossy
Bits/(Pixel*Frame) : 0.143
Stream size : 310 MiB (89%)
Writing library : XviD 64

Audio
----------
Format : MPEG Audio
Format version : Version 1
Format profile : Layer 3
Mode : Joint stereo
Mode extension : MS Stereo
Codec ID : 55
Codec ID/Hint : MP3
Duration : 40mn 26s
Bit rate mode : Constant
Bit rate : 128 Kbps
Channel(s) : 2 channels
Sampling rate : 48.0 KHz
Compression mode : Lossy
Stream size : 37.0 MiB (11%)
Alignment : Aligned on interleaves
Interleave, duration : 80 ms (2.00 video frames)
Interleave, preload duration : 504 ms
Writing library : LAME3.99.5
Language : English